<svg width="55" height="55" viewBox="0 0 20 20" fill="none" xmlns="http://www.w3.org/2000/svg">
<path d="M17.603 7.519C18.1594 9.22841 18.1238 11.0754 17.5019 12.7621C16.88 14.4488 15.708 15.8768 14.1751 16.8158C12.6421 17.7549 10.8375 18.1501 9.05243 17.9379C7.26731 17.7257 5.60573 16.9183 4.33569 15.646C3.06564 14.3737 2.26119 12.7107 2.05209 10.9252C1.84299 9.13976 2.24144 7.33588 3.18315 5.80459C4.12486 4.27329 5.55494 3.10386 7.24272 2.48491C8.9305 1.86595 10.7776 1.83358 12.486 2.393L11.438 3.44C11.38 3.497 11.328 3.56 11.28 3.625C9.91209 3.3489 8.49163 3.52037 7.22872 4.11405C5.9658 4.70773 4.92748 5.69209 4.26731 6.92156C3.60714 8.15102 3.36019 9.56031 3.56296 10.941C3.76573 12.3217 4.40747 13.6005 5.39327 14.5882C6.37907 15.5759 7.65657 16.2202 9.03686 16.4257C10.4171 16.6311 11.8269 16.387 13.0577 15.7292C14.2884 15.0714 15.2748 14.0351 15.871 12.7733C16.4672 11.5116 16.6414 10.0914 16.368 8.723C16.4364 8.67446 16.5006 8.62027 16.56 8.561L17.602 7.519H17.603ZM14.898 9C15.1127 10.0532 14.9823 11.1475 14.5262 12.1207C14.07 13.0939 13.3124 13.8942 12.3656 14.403C11.4189 14.9118 10.3334 15.102 9.27003 14.9453C8.20669 14.7887 7.22213 14.2936 6.46232 13.5334C5.7025 12.7731 5.20788 11.7883 5.05178 10.7249C4.89567 9.6615 5.08639 8.57609 5.59567 7.62959C6.10495 6.68308 6.90567 5.92589 7.87913 5.47024C8.85258 5.0146 9.94695 4.88477 11 5.1V6.646C10.2537 6.4232 9.45432 6.45572 8.72854 6.7384C8.00276 7.02109 7.39201 7.5378 6.99299 8.20671C6.59397 8.87563 6.42947 9.65853 6.52555 10.4315C6.62162 11.2044 6.97278 11.9232 7.52342 12.4741C8.07406 13.025 8.79272 13.3764 9.56562 13.4728C10.3385 13.5692 11.1215 13.4051 11.7906 13.0063C12.4597 12.6076 12.9766 11.9971 13.2596 11.2714C13.5426 10.5458 13.5755 9.74644 13.353 9H14.898ZM9.998 11.5C10.228 11.5001 10.455 11.4473 10.6614 11.3457C10.8678 11.2441 11.048 11.0964 11.1882 10.914C11.3283 10.7315 11.4247 10.5193 11.4697 10.2938C11.5148 10.0682 11.5073 9.83525 11.448 9.613L13.03 8.03L13.06 8H15.5C15.5657 8.00012 15.6308 7.98728 15.6915 7.96223C15.7523 7.93718 15.8075 7.9004 15.854 7.854L17.854 5.854C17.9241 5.78407 17.9719 5.6949 17.9912 5.59779C18.0106 5.50068 18.0007 5.40001 17.9628 5.30854C17.9249 5.21706 17.8606 5.13891 17.7783 5.08398C17.6959 5.02905 17.599 4.99982 17.5 5H15V2.5C15 2.40118 14.9707 2.30459 14.9158 2.22242C14.8609 2.14024 14.7829 2.07617 14.6917 2.0383C14.6004 2.00042 14.4999 1.99043 14.403 2.0096C14.3061 2.02877 14.217 2.07624 14.147 2.146L12.147 4.146C12.1004 4.19244 12.0635 4.24761 12.0382 4.30835C12.013 4.3691 12 4.43422 12 4.5V6.94C11.9897 6.94972 11.9797 6.95972 11.97 6.97L10.388 8.55C10.1656 8.49031 9.93238 8.48261 9.70649 8.52749C9.4806 8.57237 9.26807 8.66863 9.08534 8.80882C8.90262 8.949 8.75461 9.12935 8.65276 9.33591C8.55091 9.54247 8.49795 9.7697 8.498 10C8.498 10.3978 8.65603 10.7794 8.93734 11.0607C9.21864 11.342 9.60017 11.5 9.998 11.5Z" fill="#F8F8F8"/>
</svg>
